<svg width="20" height="20" viewBox="0 0 20 20" fill="none" xmlns="http://www.w3.org/2000/svg">
<path d="M17.1766 0.914501C17.5511 0.528517 18.1581 0.528517 18.5326 0.9145C18.907 1.30048 18.907 1.92629 18.5326 2.31227L2.26172 19.0855C1.8873 19.4715 1.28024 19.4715 0.905817 19.0855C0.531394 18.6995 0.531394 18.0737 0.905817 17.6877L17.1766 0.914501Z" fill="black"/>
<path d="M19.0942 17.6877C19.4686 18.0737 19.4686 18.6995 19.0942 19.0855C18.7198 19.4715 18.1127 19.4715 17.7383 19.0855L1.46745 2.31226C1.09303 1.92627 1.09303 1.30047 1.46745 0.914488C1.84187 0.528504 2.44893 0.528504 2.82335 0.914488L19.0942 17.6877Z" fill="black"/>
</svg>
